<?xml version="1.0" encoding="UTF-8"?>
<svg version="1.1" xmlns="http://www.w3.org/2000/svg" width="1563" height="1563">
<path d="M0 0 C1.69273094 -0.00243741 3.38546042 -0.00616583 5.07818604 -0.01106262 C9.61106074 -0.02034266 14.14371462 -0.01115817 18.67657185 0.00226951 C23.45542172 0.0137215 28.23426287 0.00946621 33.01312256 0.00752258 C41.02831562 0.00664424 49.04342335 0.0176259 57.05859375 0.03613281 C66.28762768 0.05732226 75.5165371 0.06080133 84.74559045 0.05457085 C93.67887764 0.04885197 102.61212158 0.05455063 111.54540253 0.0657444 C115.32330893 0.07035412 119.10118856 0.07128018 122.87909698 0.06915855 C127.33461772 0.06725753 131.79001394 0.07551699 136.24550629 0.09121895 C137.86789942 0.09541517 139.4903053 0.09634436 141.11270142 0.09352875 C171.12383986 0.04939296 199.723994 7.11362474 222.10839844 28.37231445 C222.10839844 29.03231445 222.10839844 29.69231445 222.10839844 30.37231445 C222.76839844 30.37231445 223.42839844 30.37231445 224.10839844 30.37231445 C243.8320133 51.64684604 251.56068412 77.79542316 251.48339844 106.37231445 C251.48318695 107.0957605 251.48297546 107.81920654 251.48275757 108.5645752 C251.4037813 135.70696068 243.88903399 163.63349843 224.10839844 183.37231445 C223.44839844 183.37231445 222.78839844 183.37231445 222.10839844 183.37231445 C222.10839844 184.03231445 222.10839844 184.69231445 222.10839844 185.37231445 C199.04060142 207.65423462 170.0760627 213.52853177 139.23852539 213.51757812 C137.54712348 213.52057503 135.85572225 213.52397877 134.1643219 213.52775574 C129.59380105 213.53654664 125.02329896 213.5389318 120.45277047 213.53957152 C117.58985658 213.5402849 114.72694738 213.54242467 111.86403465 213.54506874 C101.85507279 213.55430646 91.84612419 213.55840567 81.8371582 213.55761719 C72.54186246 213.55701707 63.24662487 213.56756009 53.95134383 213.58336085 C45.94247871 213.59648443 37.93363248 213.60179906 29.92475671 213.60116178 C25.15407937 213.60090817 20.38345376 213.60368275 15.61278725 213.61433983 C11.12046966 213.6241021 6.62825238 213.62404497 2.13593102 213.6168232 C0.49902574 213.61578732 -1.13788605 213.61807996 -2.77478027 213.62418365 C-15.99680675 213.67024328 -29.03287005 212.89459409 -41.82910156 209.24731445 C-42.57434082 209.03558594 -43.31958008 208.82385742 -44.08740234 208.60571289 C-69.90845534 200.8380934 -88.5483599 183.26739603 -101.63769531 160.30981445 C-105.56173137 152.95102364 -108.01217257 145.48309467 -109.89160156 137.37231445 C-110.11807373 136.39512451 -110.11807373 136.39512451 -110.34912109 135.39819336 C-116.87750003 106.00992442 -113.91631787 72.01214667 -97.64160156 46.24731445 C-83.53575938 24.6716008 -62.12123359 9.02603864 -36.89160156 3.37231445 C-24.56242524 0.89426344 -12.5511119 -0.0648369 0 0 Z M-58.70410156 82.05981445 C-65.22673127 90.00501305 -67.42298302 100.22713169 -66.67285156 110.3137207 C-65.40082339 119.89062508 -61.88272655 128.5365478 -54.89160156 135.37231445 C-45.26552061 141.99123954 -37.11801965 144.52580904 -25.43026733 144.51275635 C-24.17346002 144.51721303 -24.17346002 144.51721303 -22.89126265 144.52175975 C-20.09107244 144.53041297 -17.29092516 144.53195214 -14.49072266 144.53344727 C-12.4797761 144.53807787 -10.46883041 144.54310286 -8.45788574 144.54849243 C-2.99893205 144.56159607 2.46000935 144.56805756 7.91897631 144.57250309 C11.33261689 144.57543744 14.74625414 144.57954296 18.15989304 144.58400726 C28.84929533 144.59767757 39.53868999 144.6073462 50.22810042 144.61120915 C62.55061904 144.61568722 74.8730266 144.63322546 87.19551146 144.66220975 C96.73119985 144.68385729 106.26685706 144.6939151 115.80256975 144.69525027 C121.49264638 144.6962962 127.18261854 144.7021588 132.87266922 144.72006989 C138.22922452 144.73660342 143.5855974 144.73868045 148.94216919 144.72993088 C150.90123357 144.7291633 152.86030798 144.73346615 154.81934738 144.74338913 C169.87676831 144.81514653 182.90278007 144.29342793 194.79589844 134.05981445 C202.62458497 124.96161118 205.72847159 115.62470008 205.38964844 103.6105957 C204.5255886 93.66190676 201.30832525 85.32187442 193.99902344 78.36450195 C185.3710009 71.25382131 176.68296602 69.21978529 165.646698 69.23187256 C164.79672465 69.22890144 163.94675131 69.22593031 163.0710212 69.22286916 C160.22393252 69.21420022 157.37688598 69.21267543 154.52978516 69.21118164 C152.48780732 69.20655213 150.44583034 69.20152729 148.40385437 69.19613647 C142.85606846 69.1830219 137.30829465 69.17656916 131.76049566 69.17212582 C128.29242764 69.16919312 124.82436291 69.16508791 121.35629654 69.16062164 C110.49977092 69.14694821 99.64325284 69.13728121 88.7867192 69.13341975 C76.26551952 69.12894147 63.74442913 69.11140352 51.22326267 69.08241916 C41.53814213 69.06078018 31.85305228 69.05071426 22.16790783 69.04937863 C16.38674601 69.04833205 10.60568695 69.04245561 4.82455063 69.02455902 C-0.61734814 69.00804044 -6.05906732 69.00594127 -11.50098228 69.01469803 C-13.49271692 69.01546642 -15.48446137 69.01115199 -17.47617149 69.00123978 C-33.6216084 68.92563368 -46.87343217 69.80213576 -58.70410156 82.05981445 Z " fill="#000000" transform="translate(253.8916015625,792.627685546875)"/>
<path d="M0 0 C5.28 0 10.56 0 16 0 C16.391875 2.5575 16.78375 5.115 17.1875 7.75 C19.60316429 21.97452008 24.65084528 33.3812186 36.3125 42.3125 C50.29520847 51.90772832 65.06557394 52.29711595 81.48046875 52.27124023 C83.33301521 52.27563444 85.1855597 52.28093911 87.0381012 52.28707886 C91.01031702 52.29852926 94.98247986 52.30403465 98.95471191 52.30496025 C105.25338515 52.30691278 111.5519501 52.32503246 117.85058594 52.34571838 C133.49909483 52.39475301 149.14763307 52.42571412 164.79620361 52.44702148 C176.9556536 52.46360513 189.11501018 52.48659471 201.27439785 52.53004223 C207.51708331 52.55164726 213.75959055 52.55989253 220.00231075 52.55764949 C223.91142718 52.5593337 227.82043036 52.57348834 231.72950554 52.59086227 C233.52113955 52.59639219 235.31279774 52.59701264 237.10443306 52.59192467 C269.56682768 52.50951251 298.12078905 60.22843203 321.8125 83.375 C327.14081116 88.75857926 331.37934432 94.31641591 335 101 C335.59296875 102.05574219 336.1859375 103.11148438 336.796875 104.19921875 C345.90314879 121.26375319 349.39996434 139.36190302 349.3125 158.625 C349.31001251 159.28263336 349.30752502 159.94026672 349.30496216 160.61782837 C349.12763113 191.01881572 340.07567522 216.1718238 318.9375 238.5 C298.42631563 258.47512866 271.24954302 266.20557392 243.15463257 266.12025452 C241.58598275 266.12153615 241.58598275 266.12153615 239.98564303 266.12284368 C236.50652414 266.12448141 233.02745424 266.11900523 229.54833984 266.11352539 C227.04443361 266.11324312 224.54052728 266.11340202 222.03662109 266.1139679 C216.65871942 266.11419509 211.28083278 266.11137185 205.90293503 266.10573006 C198.12754549 266.09757847 190.35216182 266.0949961 182.57676847 266.09374207 C169.95954153 266.09155728 157.34232108 266.08491278 144.72509766 266.07543945 C132.4737959 266.06625048 120.22249591 266.05917692 107.97119141 266.05493164 C107.21512176 266.05466892 106.45905212 266.05440619 105.68007128 266.05413551 C101.88682354 266.0528304 98.09357578 266.05156671 94.30032802 266.05032361 C62.86687959 266.03996886 31.43344325 266.0215402 0 266 C0 243.23 0 220.46 0 197 C8.11625977 196.98541748 16.23251953 196.97083496 24.59472656 196.95581055 C50.58866454 196.90701249 76.58254721 196.84359212 102.57642902 196.77101372 C106.61670758 196.75974608 110.65698649 196.74860755 114.69726562 196.73754883 C115.90374302 196.7342433 115.90374302 196.7342433 117.1345937 196.730871 C130.14359464 196.69553632 143.15259553 196.67065059 156.16162661 196.64965298 C169.51846942 196.62786038 182.87525017 196.5947772 196.23204017 196.55129844 C204.46829622 196.52484122 212.70447501 196.50710223 220.94077143 196.50065396 C226.59517305 196.49538188 232.24947758 196.47910413 237.9038271 196.45433434 C241.1619998 196.44038134 244.41996585 196.43276147 247.67817307 196.43499184 C251.22121719 196.436651 254.76373056 196.41988958 258.30670166 196.39872742 C259.83010457 196.40599878 259.83010457 196.40599878 261.3842833 196.41341704 C273.53707904 196.29425249 283.59874678 193.60648777 292.74609375 185.44140625 C299.74526538 178.16296592 302.39961871 167.21502023 302.2109375 157.328125 C301.32911504 147.59541787 298.21255147 138.10463115 291.11328125 131.15234375 C282.48225973 124.2509179 273.10249035 122.84753473 262.33106995 122.86196899 C261.47081378 122.85914771 260.61055762 122.85632643 259.72423309 122.85341966 C256.84812861 122.84510195 253.97206277 122.84373781 251.09594727 122.84228516 C249.03075554 122.83761469 246.96556483 122.83247074 244.90037537 122.82688904 C240.45443888 122.81562011 236.00850905 122.80717995 231.56256294 122.80076981 C224.52190294 122.79006894 217.48129065 122.76981688 210.44065857 122.74765015 C190.41985265 122.68580129 170.39904936 122.63178097 150.37817383 122.59863281 C139.31950033 122.58024303 128.26090667 122.5512508 117.20229191 122.5106281 C111.35620604 122.4896279 105.51022048 122.47411079 99.66409492 122.47182083 C94.15729282 122.46966128 88.65069937 122.4536594 83.14396095 122.42743111 C81.13295902 122.42028572 79.12193167 122.41811377 77.11091995 122.42153358 C53.96555881 122.45457989 34.77229429 118.50549107 17.19921875 102.3125 C2.88191121 87.25771126 -0.35456217 68.11625691 -0.1953125 48.14453125 C-0.19157238 46.74777939 -0.18873015 45.35102486 -0.18673706 43.95426941 C-0.17917908 40.31619751 -0.15960016 36.6782908 -0.1373291 33.0402832 C-0.11669966 29.31268547 -0.10769916 25.5850605 -0.09765625 21.85742188 C-0.076345 14.57153133 -0.04122906 7.28581005 0 0 Z " fill="#000000" transform="translate(603,740)"/>
<path d="M0 0 C23.56592755 5.23687279 46.09803502 14.36601167 69 22 C69 189.97 69 357.94 69 531 C46.23 531 23.46 531 0 531 C0 355.77 0 180.54 0 0 Z " fill="#000000" transform="translate(1027,475)"/>
<path d="M0 0 C23.42000709 5.85500177 46.09803502 14.36601167 69 22 C69 189.97 69 357.94 69 531 C46.23 531 23.46 531 0 531 C0 355.77 0 180.54 0 0 Z " fill="#000000" transform="translate(1353,475)"/>
<path d="M0 0 C8.36173843 2.1740427 16.55912452 4.74108154 24.76171875 7.44921875 C26.04629252 7.87115615 27.33094676 8.29284861 28.61567688 8.71430969 C31.95855577 9.81166898 35.30034819 10.91229964 38.64190674 12.01367188 C42.06724755 13.14199539 45.49363109 14.26714333 48.91992188 15.39257812 C55.61429115 17.59198747 62.30751506 19.79486285 69 22 C69.06875489 64.37061543 69.12157379 106.74122439 69.15319599 149.11188462 C69.15694784 154.12081379 69.16083084 159.12974286 69.16479492 164.13867188 C69.16558185 165.13580624 69.16636878 166.1329406 69.16717956 167.16029115 C69.18021255 183.27889835 69.20385472 199.39747327 69.23145839 215.51606135 C69.25957134 232.07082792 69.27618868 248.62557765 69.28226548 265.18036711 C69.28636974 275.38510998 69.29930494 285.58976154 69.3237494 295.79447629 C69.33967939 302.80427929 69.34438402 309.8140355 69.34050413 316.82385527 C69.33859382 320.86047884 69.34139933 324.89694354 69.35761642 328.93353844 C69.47495004 359.70476498 67.59219612 386.71454154 45 410 C44.47148438 410.60199219 43.94296875 411.20398437 43.3984375 411.82421875 C26.35665247 430.57018229 -1.68064032 438.80898862 -26.25097656 440.12011719 C-30.18148864 440.22994826 -34.06713228 440.12824569 -38 440 C-38 434.72 -38 429.44 -38 424 C-35.525 423.608125 -33.05 423.21625 -30.5 422.8125 C-20.58172789 421.05951699 -14.01201284 417.40340745 -7.69140625 409.328125 C-0.50782571 399.01105384 -0.55971635 386.81542022 -0.60127258 374.71307373 C-0.59582421 373.08991538 -0.58906895 371.46676099 -0.58113068 369.84361291 C-0.56319733 365.41266289 -0.56365109 360.98188126 -0.56726015 356.55090356 C-0.56788625 351.76167644 -0.55124287 346.97250472 -0.53674316 342.18330383 C-0.51399282 333.89540949 -0.50207821 325.60755708 -0.49761391 317.31963348 C-0.49114355 305.3368359 -0.46819058 293.354114 -0.44127061 281.37134698 C-0.39803531 261.92807662 -0.36804996 242.48480944 -0.34643555 223.04150391 C-0.3254161 204.15900097 -0.29813256 185.27652414 -0.26245117 166.39404297 C-0.26025235 165.22928038 -0.25805352 164.06451779 -0.25578807 162.86445937 C-0.24471817 157.02093492 -0.23352541 151.17741072 -0.22227156 145.33388662 C-0.12913257 96.88928085 -0.05751323 48.44466027 0 0 Z " fill="#000000" transform="translate(1209,793)"/>
</svg>
